<svg id="visual" viewBox="0 0 960 540" width="960" height="540" xmlns="http://www.w3.org/2000/svg" xmlns:xlink="http://www.w3.org/1999/xlink" version="1.1"><path d="M0 44L80 44C160 44 320 44 480 44C640 44 800 44 880 44L960 44L960 0L880 0C800 0 640 0 480 0C320 0 160 0 80 0L0 0Z" fill="#1a1f28"></path><path d="M0 71L80 71C160 71 320 71 480 71C640 71 800 71 880 71L960 71L960 42L880 42C800 42 640 42 480 42C320 42 160 42 80 42L0 42Z" fill="#133460"></path><path d="M0 109L80 109C160 109 320 109 480 109C640 109 800 109 880 109L960 109L960 69L880 69C800 69 640 69 480 69C320 69 160 69 80 69L0 69Z" fill="#00499c"></path><path d="M0 174L80 174.8C160 175.7 320 177.3 480 177.3C640 177.3 800 175.7 880 174.8L960 174L960 107L880 107C800 107 640 107 480 107C320 107 160 107 80 107L0 107Z" fill="#005cda"></path><path d="M0 287L80 288C160 289 320 291 480 290.2C640 289.3 800 285.7 880 283.8L960 282L960 172L880 172.8C800 173.7 640 175.3 480 175.3C320 175.3 160 173.7 80 172.8L0 172Z" fill="#0066ff"></path><path d="M0 320L80 320.8C160 321.7 320 323.3 480 322.3C640 321.3 800 317.7 880 315.8L960 314L960 280L880 281.8C800 283.7 640 287.3 480 288.2C320 289 160 287 80 286L0 285Z" fill="#0066ff"></path><path d="M0 433L80 433C160 433 320 433 480 433C640 433 800 433 880 433L960 433L960 312L880 313.8C800 315.7 640 319.3 480 320.3C320 321.3 160 319.7 80 318.8L0 318Z" fill="#005cda"></path><path d="M0 460L80 460C160 460 320 460 480 460C640 460 800 460 880 460L960 460L960 431L880 431C800 431 640 431 480 431C320 431 160 431 80 431L0 431Z" fill="#00499c"></path><path d="M0 487L80 487C160 487 320 487 480 487C640 487 800 487 880 487L960 487L960 458L880 458C800 458 640 458 480 458C320 458 160 458 80 458L0 458Z" fill="#133460"></path><path d="M0 541L80 541C160 541 320 541 480 541C640 541 800 541 880 541L960 541L960 485L880 485C800 485 640 485 480 485C320 485 160 485 80 485L0 485Z" fill="#1a1f28"></path></svg>